<svg xmlns="http://www.w3.org/2000/svg" viewBox="0 0 322 138"><defs><style>.cls-1{fill:#f5929b;}.cls-2{fill:#f6e136;}.cls-2,.cls-3,.cls-4,.cls-5,.cls-6{stroke:#000;stroke-miterlimit:10;stroke-width:0.1px;}.cls-3{fill:#da6b96;}.cls-4{fill:#254e8d;}.cls-5{fill:#99ba2e;}.cls-6{fill:#2aa8d0;}</style></defs><title>Asset 12</title><g id="Layer_2" data-name="Layer 2"><g id="cta_mobile_copy" data-name="cta mobile copy"><rect class="cls-1" width="322" height="138"/><g id="row"><path class="cls-2" d="M282.66,24.32l-1.14.57c-.27.13-.56-.06-.65-.43h0a.81.81,0,0,1,.31-.91l1.14-.57c.26-.14.55.06.64.43h0A.81.81,0,0,1,282.66,24.32Z"/><path class="cls-3" d="M233.74,6.65l.65,1.44a.9.9,0,0,1-.15,1h0c-.24.21-.55.11-.7-.22l-.65-1.43a.92.92,0,0,1,.15-1h0C233.28,6.22,233.59,6.32,233.74,6.65Z"/><path class="cls-4" d="M248.37,25.1l-.49-1.55a.84.84,0,0,1,.25-.94h0c.26-.16.56,0,.67.36l.5,1.55a.85.85,0,0,1-.26.94h0C248.79,25.62,248.49,25.46,248.37,25.1Z"/><path class="cls-5" d="M256,21l.51-1.54c.12-.36.42-.51.68-.34h0a.86.86,0,0,1,.24,1l-.51,1.54c-.12.35-.43.5-.68.34h0A.87.87,0,0,1,256,21Z"/><path class="cls-3" d="M258.36,7.07,259,8.5a.92.92,0,0,1-.15,1h0c-.24.21-.55.11-.7-.22l-.65-1.44a.9.9,0,0,1,.15-1h0C257.9,6.64,258.21,6.74,258.36,7.07Z"/><path class="cls-5" d="M211.24,20.62l.52-1.54c.12-.36.42-.51.67-.34h0a.86.86,0,0,1,.24,1l-.51,1.54c-.12.35-.42.5-.68.34h0A.87.87,0,0,1,211.24,20.62Z"/><path class="cls-2" d="M204.42,3l1.14-.58c.26-.13.55.06.64.43h0a.81.81,0,0,1-.3.91l-1.14.58c-.26.13-.55-.06-.65-.43h0A.83.83,0,0,1,204.42,3Z"/><path class="cls-4" d="M216.39,1.65l1.15.53a.81.81,0,0,1,.33.9h0c-.09.37-.37.57-.64.45L216.08,3a.81.81,0,0,1-.33-.9h0C215.84,1.74,216.13,1.53,216.39,1.65Z"/><path class="cls-2" d="M297.18,3.5l1.14-.58c.26-.13.55.06.65.43h0a.81.81,0,0,1-.31.91l-1.13.58c-.27.13-.56-.06-.65-.43h0A.81.81,0,0,1,297.18,3.5Z"/><path class="cls-4" d="M111.35,24.09l-.49-1.55a.87.87,0,0,1,.25-.95h0c.26-.16.56,0,.67.36l.5,1.55a.87.87,0,0,1-.26.95h0C111.77,24.61,111.47,24.45,111.35,24.09Z"/><path class="cls-6" d="M111.55,14.06l-1-1a.91.91,0,0,1-.13-1h0c.16-.33.48-.41.71-.18l1,1a.92.92,0,0,1,.13,1h0A.43.43,0,0,1,111.55,14.06Z"/><path class="cls-4" d="M124.46,15.72l1.15.52a.81.81,0,0,1,.33.9h0c-.09.37-.37.58-.64.46l-1.15-.52a.82.82,0,0,1-.33-.9h0C123.91,15.8,124.2,15.6,124.46,15.72Z"/><path class="cls-6" d="M170.88,11.68l1,1a.9.9,0,0,1,.13,1h0c-.16.32-.47.4-.7.18l-1-1a.91.91,0,0,1-.13-1h0C170.33,11.54,170.65,11.46,170.88,11.68Z"/><path class="cls-4" d="M146.43,1.37l.5,1.55a.84.84,0,0,1-.25.94h0c-.26.17-.56,0-.67-.35L145.51,2a.86.86,0,0,1,.25-.94h0C146,.85,146.32,1,146.43,1.37Z"/><path class="cls-6" d="M146.26,11.4l1,1a.91.91,0,0,1,.13,1h0c-.16.32-.47.41-.7.18l-1-1a.91.91,0,0,1-.13-1h0C145.71,11.26,146,11.18,146.26,11.4Z"/><path class="cls-5" d="M138.81,5.49,138.3,7c-.12.36-.42.51-.68.35h0a.86.86,0,0,1-.24-1l.51-1.54c.12-.36.42-.51.67-.35h0A.85.85,0,0,1,138.81,5.49Z"/><path class="cls-3" d="M151.33,13.77l-.08,1.7c0,.39-.27.69-.55.66h0c-.27,0-.48-.37-.46-.76l.08-1.7c0-.39.26-.69.54-.66h0C151.14,13,151.35,13.38,151.33,13.77Z"/><path class="cls-4" d="M191.2,1.53l.5,1.55a.84.84,0,0,1-.25.94h0c-.26.17-.56,0-.67-.35l-.5-1.55a.84.84,0,0,1,.25-.94h0C190.79,1,191.09,1.17,191.2,1.53Z"/><path class="cls-6" d="M191,11.56l1,1a.9.9,0,0,1,.13,1h0a.43.43,0,0,1-.71.18l-1-1a.91.91,0,0,1-.13-1h0C190.48,11.42,190.79,11.34,191,11.56Z"/><path class="cls-4" d="M178.11,10,177,9.44a.79.79,0,0,1-.33-.9h0c.09-.37.37-.58.64-.46l1.15.52a.81.81,0,0,1,.33.89h0C178.66,9.87,178.38,10.08,178.11,10Z"/><path class="cls-4" d="M98.44,1.51l.49,1.55a.85.85,0,0,1-.25.95h0c-.25.16-.55,0-.67-.36l-.5-1.55a.86.86,0,0,1,.25-.94h0C98,1,98.32,1.16,98.44,1.51Z"/><path class="cls-5" d="M90.81,5.63,90.3,7.17c-.12.36-.42.52-.67.35h0a.85.85,0,0,1-.25-.95L89.89,5c.12-.36.42-.51.67-.34h0A.83.83,0,0,1,90.81,5.63Z"/><path class="cls-2" d="M97.68,23.25l-1.13.59c-.27.13-.56-.06-.65-.43h0a.81.81,0,0,1,.3-.91l1.13-.59c.27-.13.56.06.65.43h0A.79.79,0,0,1,97.68,23.25Z"/><path class="cls-3" d="M88.49,19.61l-.65-1.43a.92.92,0,0,1,.15-1h0c.24-.21.55-.12.7.22l.66,1.43a.89.89,0,0,1-.16,1h0C89,20,88.64,19.94,88.49,19.61Z"/><path class="cls-4" d="M98.44,1.51l.49,1.55a.85.85,0,0,1-.25.95h0c-.25.16-.55,0-.67-.36l-.5-1.55a.86.86,0,0,1,.25-.94h0C98,1,98.32,1.16,98.44,1.51Z"/><path class="cls-5" d="M90.81,5.63,90.3,7.17c-.12.36-.42.52-.67.35h0a.85.85,0,0,1-.25-.95L89.89,5c.12-.36.42-.51.67-.34h0A.83.83,0,0,1,90.81,5.63Z"/><path class="cls-3" d="M88.49,19.61l-.65-1.43a.92.92,0,0,1,.15-1h0c.24-.21.55-.12.7.22l.66,1.43a.89.89,0,0,1-.16,1h0C89,20,88.64,19.94,88.49,19.61Z"/><path class="cls-5" d="M74.06,20.27l.49-1.55c.11-.36.41-.52.67-.36h0a.86.86,0,0,1,.26.94L75,20.85c-.11.36-.41.53-.67.37h0A.86.86,0,0,1,74.06,20.27Z"/><path class="cls-2" d="M67,2.82l1.13-.61c.26-.14.55,0,.66.41h0a.81.81,0,0,1-.3.92l-1.12.61c-.27.14-.56,0-.66-.41h0A.82.82,0,0,1,67,2.82Z"/><path class="cls-3" d="M76.2,6.25l.67,1.41a.89.89,0,0,1-.14,1h0c-.23.22-.54.13-.7-.2L75.36,7a.9.9,0,0,1,.14-1h0C75.73,5.83,76.05,5.92,76.2,6.25Z"/><path class="cls-6" d="M24.49,13.63l-1-1a.91.91,0,0,1-.13-1h0c.16-.33.47-.41.7-.19l1,1a.9.9,0,0,1,.13,1h0A.42.42,0,0,1,24.49,13.63Z"/><path class="cls-5" d="M32,19.5,32.46,18c.12-.36.42-.52.67-.35h0a.83.83,0,0,1,.25.94l-.51,1.55c-.11.35-.41.51-.67.35h0A.88.88,0,0,1,32,19.5Z"/><path class="cls-6" d="M56.2,10.46l1,.94a.88.88,0,0,1,.14,1h0c-.15.33-.47.42-.7.21l-1-.94a.89.89,0,0,1-.14-1h0C55.65,10.34,56,10.24,56.2,10.46Z"/><path class="cls-5" d="M48.66,4.77l-.48,1.55c-.12.36-.42.53-.67.37h0a.85.85,0,0,1-.26-.94l.49-1.56c.11-.36.41-.52.66-.36h0A.83.83,0,0,1,48.66,4.77Z"/></g><g id="row-2" data-name="row"><path class="cls-2" d="M52.51,27.88l1.13-.58c.26-.13.55.06.65.43h0a.79.79,0,0,1-.3.91l-1.13.58c-.26.14-.55,0-.65-.42h0A.81.81,0,0,1,52.51,27.88Z"/><path class="cls-3" d="M101.6,45.05l-.67-1.42a.9.9,0,0,1,.15-1h0c.23-.21.55-.12.7.21l.66,1.43a.88.88,0,0,1-.14,1h0C102.06,45.48,101.75,45.38,101.6,45.05Z"/><path class="cls-4" d="M86.78,26.75l.51,1.55a.85.85,0,0,1-.24.94h0c-.26.16-.56,0-.68-.35l-.51-1.55a.83.83,0,0,1,.25-.94h0C86.36,26.23,86.66,26.39,86.78,26.75Z"/><path class="cls-5" d="M79.19,30.9l-.5,1.55c-.12.35-.42.51-.67.34h0a.85.85,0,0,1-.26-.94l.5-1.54c.12-.36.42-.52.67-.35h0A.85.85,0,0,1,79.19,30.9Z"/><path class="cls-3" d="M77,44.89l-.66-1.43a.92.92,0,0,1,.14-1h0c.24-.21.55-.12.71.22l.66,1.42a.91.91,0,0,1-.15,1h0C77.44,45.31,77.13,45.22,77,44.89Z"/><path class="cls-5" d="M124,30.86l-.5,1.54c-.11.36-.41.52-.67.35h0a.88.88,0,0,1-.25-.95l.5-1.54c.12-.36.42-.51.67-.35h0A.85.85,0,0,1,124,30.86Z"/><path class="cls-2" d="M131,48.45l-1.14.59c-.26.13-.55-.06-.65-.43h0a.81.81,0,0,1,.3-.91l1.13-.59c.26-.13.55,0,.65.42h0A.82.82,0,0,1,131,48.45Z"/><path class="cls-2" d="M38.19,48.85l-1.13.59c-.26.14-.56,0-.65-.42h0a.82.82,0,0,1,.29-.92l1.13-.59c.26-.13.56.06.66.43h0A.82.82,0,0,1,38.19,48.85Z"/><path class="cls-4" d="M223.8,26.38l.51,1.55a.85.85,0,0,1-.24.94h0c-.25.16-.56,0-.67-.35L222.89,27a.85.85,0,0,1,.24-.94h0C223.38,25.86,223.69,26,223.8,26.38Z"/><path class="cls-6" d="M223.7,36.41l1,1a.93.93,0,0,1,.14,1h0c-.16.33-.47.41-.71.19l-1-1a.92.92,0,0,1-.14-1h0C223.16,36.28,223.47,36.19,223.7,36.41Z"/><path class="cls-4" d="M210.78,34.88l-1.16-.51a.81.81,0,0,1-.33-.89h0c.08-.38.36-.59.63-.47l1.16.51a.81.81,0,0,1,.33.89h0C211.33,34.79,211.05,35,210.78,34.88Z"/><path class="cls-6" d="M164.41,39.39l-1-1a.92.92,0,0,1-.14-1h0c.16-.32.47-.41.7-.19l1,1a.9.9,0,0,1,.14,1h0C165,39.52,164.64,39.61,164.41,39.39Z"/><path class="cls-6" d="M189,39.42l-1-1a.91.91,0,0,1-.15-1h0c.16-.32.47-.41.71-.19l1,.95a.89.89,0,0,1,.14,1h0C189.58,39.55,189.26,39.64,189,39.42Z"/><path class="cls-5" d="M196.54,45.25l.49-1.54c.12-.36.42-.52.67-.36h0a.87.87,0,0,1,.26.95l-.5,1.55c-.11.35-.41.51-.67.35h0A.87.87,0,0,1,196.54,45.25Z"/><path class="cls-3" d="M183.93,37.1l.07-1.7c0-.39.25-.69.53-.66h0c.28,0,.5.36.48.75l-.07,1.7c0,.39-.25.69-.53.66h0C184.13,37.83,183.91,37.49,183.93,37.1Z"/><path class="cls-6" d="M144.26,39.71l-1-1a.91.91,0,0,1-.14-1h0a.42.42,0,0,1,.7-.19l1,1a.92.92,0,0,1,.14,1h0C144.81,39.85,144.5,39.93,144.26,39.71Z"/><path class="cls-4" d="M157.19,41.19l1.16.5a.81.81,0,0,1,.34.9h0c-.08.37-.37.58-.64.46l-1.15-.5a.8.8,0,0,1-.34-.89h0C156.64,41.28,156.93,41.07,157.19,41.19Z"/><path class="cls-5" d="M244.53,44.62l.5-1.54c.11-.36.41-.52.67-.35h0a.84.84,0,0,1,.25.94l-.49,1.55c-.12.36-.42.51-.67.35h0A.86.86,0,0,1,244.53,44.62Z"/><path class="cls-2" d="M237.48,27.07l1.13-.59c.26-.14.55.05.65.42h0a.82.82,0,0,1-.29.92l-1.13.59c-.26.14-.55-.05-.65-.42h0A.82.82,0,0,1,237.48,27.07Z"/><path class="cls-3" d="M246.71,30.63l.66,1.42a.9.9,0,0,1-.14,1h0c-.23.21-.55.12-.7-.21l-.67-1.42a.92.92,0,0,1,.14-1h0C246.24,30.21,246.55,30.3,246.71,30.63Z"/><path class="cls-5" d="M244.53,44.62l.5-1.54c.11-.36.41-.52.67-.35h0a.84.84,0,0,1,.25.94l-.49,1.55c-.12.36-.42.51-.67.35h0A.86.86,0,0,1,244.53,44.62Z"/><path class="cls-3" d="M246.71,30.63l.66,1.42a.9.9,0,0,1-.14,1h0c-.23.21-.55.12-.7-.21l-.67-1.42a.92.92,0,0,1,.14-1h0C246.24,30.21,246.55,30.3,246.71,30.63Z"/><path class="cls-5" d="M261.13,29.81l-.47,1.56c-.11.36-.41.53-.67.37h0a.86.86,0,0,1-.26-.94l.47-1.56c.11-.36.41-.52.67-.36h0A.83.83,0,0,1,261.13,29.81Z"/><path class="cls-2" d="M268.4,47.2l-1.13.62c-.26.14-.55,0-.65-.41h0a.81.81,0,0,1,.28-.92l1.12-.62c.26-.15.55,0,.66.4h0A.84.84,0,0,1,268.4,47.2Z"/><path class="cls-3" d="M259.13,43.86l-.68-1.41a.91.91,0,0,1,.13-1h0c.23-.22.54-.13.7.2l.69,1.4a.92.92,0,0,1-.13,1h0C259.6,44.27,259.29,44.19,259.13,43.86Z"/><path class="cls-6" d="M310.77,36l1,.95a.91.91,0,0,1,.15,1h0c-.16.32-.47.41-.7.19l-1-1a.91.91,0,0,1-.15-1h0C310.22,35.83,310.53,35.74,310.77,36Z"/><path class="cls-5" d="M303.25,30.16l-.5,1.55c-.11.36-.41.52-.66.36h0a.85.85,0,0,1-.26-.95l.49-1.54c.11-.36.41-.52.67-.36h0A.86.86,0,0,1,303.25,30.16Z"/><path class="cls-3" d="M301.11,44.17l-.67-1.42a.9.9,0,0,1,.14-1h0c.23-.21.55-.12.7.21l.67,1.42a.87.87,0,0,1-.14,1h0C301.58,44.59,301.26,44.5,301.11,44.17Z"/><path class="cls-6" d="M279.09,39.45l-1-.93a.9.9,0,0,1-.15-1h0c.15-.33.46-.43.7-.21l1,.92a.92.92,0,0,1,.15,1h0C279.64,39.57,279.33,39.66,279.09,39.45Z"/><path class="cls-5" d="M286.68,45.06l.48-1.56c.1-.36.4-.53.66-.37h0a.85.85,0,0,1,.27.94l-.47,1.56c-.11.36-.41.53-.67.37h0A.87.87,0,0,1,286.68,45.06Z"/></g><g id="row-3" data-name="row"><path class="cls-2" d="M52.51,56.88l1.13-.58c.26-.13.55.06.65.43h0a.79.79,0,0,1-.3.91l-1.13.58c-.26.14-.55,0-.65-.42h0A.81.81,0,0,1,52.51,56.88Z"/><path class="cls-3" d="M101.6,74.05l-.67-1.42a.9.9,0,0,1,.15-1h0c.23-.21.55-.12.7.21l.66,1.43a.88.88,0,0,1-.14,1h0C102.06,74.48,101.75,74.38,101.6,74.05Z"/><path class="cls-4" d="M86.78,55.75l.51,1.55a.85.85,0,0,1-.24.94h0c-.26.16-.56,0-.68-.35l-.51-1.55a.83.83,0,0,1,.25-.94h0C86.36,55.23,86.66,55.39,86.78,55.75Z"/><path class="cls-5" d="M79.19,59.9l-.5,1.55c-.12.35-.42.51-.67.34h0a.85.85,0,0,1-.26-.94l.5-1.54c.12-.36.42-.52.67-.35h0A.85.85,0,0,1,79.19,59.9Z"/><path class="cls-5" d="M124,59.86l-.5,1.54c-.11.36-.41.52-.67.35h0a.88.88,0,0,1-.25-1l.5-1.54c.12-.36.42-.51.67-.35h0A.85.85,0,0,1,124,59.86Z"/><path class="cls-2" d="M131,77.45l-1.14.59c-.26.13-.55-.06-.65-.43h0a.81.81,0,0,1,.3-.91l1.13-.59c.26-.13.55,0,.65.42h0A.82.82,0,0,1,131,77.45Z"/><path class="cls-4" d="M119,78.88l-1.16-.52a.77.77,0,0,1-.33-.89h0c.08-.38.36-.58.63-.46l1.15.51a.8.8,0,0,1,.34.89h0C119.55,78.79,119.26,79,119,78.88Z"/><path class="cls-4" d="M223.8,55.38l.51,1.55a.85.85,0,0,1-.24.94h0c-.25.16-.56,0-.67-.35L222.89,56a.85.85,0,0,1,.24-.94h0C223.38,54.86,223.69,55,223.8,55.38Z"/><path class="cls-6" d="M223.7,65.41l1,1a.93.93,0,0,1,.14,1h0c-.16.33-.47.41-.71.19l-1-1a.92.92,0,0,1-.14-1h0C223.16,65.28,223.47,65.19,223.7,65.41Z"/><path class="cls-4" d="M210.78,63.88l-1.16-.51a.81.81,0,0,1-.33-.89h0c.08-.38.36-.59.63-.47l1.16.51a.81.81,0,0,1,.33.89h0C211.33,63.79,211.05,64,210.78,63.88Z"/><path class="cls-6" d="M164.41,68.39l-1-1a.92.92,0,0,1-.14-1h0c.16-.32.47-.41.7-.19l1,1a.9.9,0,0,1,.14,1h0C165,68.52,164.64,68.61,164.41,68.39Z"/><path class="cls-4" d="M189,78.45l-.51-1.54a.86.86,0,0,1,.24-1h0c.26-.17.56,0,.68.35l.51,1.54a.86.86,0,0,1-.24,1h0C189.37,79,189.07,78.81,189,78.45Z"/><path class="cls-6" d="M189,68.42l-1-1a.91.91,0,0,1-.15-1h0c.16-.32.47-.41.71-.19l1,1a.89.89,0,0,1,.14,1h0C189.58,68.55,189.26,68.64,189,68.42Z"/><path class="cls-5" d="M196.54,74.25l.49-1.54c.12-.36.42-.52.67-.36h0a.87.87,0,0,1,.26,1l-.5,1.55c-.11.35-.41.51-.67.35h0A.87.87,0,0,1,196.54,74.25Z"/><path class="cls-3" d="M183.93,66.1l.07-1.7c0-.39.25-.69.53-.66h0c.28,0,.5.36.48.75l-.07,1.7c0,.39-.25.69-.53.66h0C184.13,66.83,183.91,66.49,183.93,66.1Z"/><path class="cls-4" d="M144.19,78.74l-.52-1.54a.85.85,0,0,1,.25-1h0c.25-.16.55,0,.67.35l.51,1.55a.85.85,0,0,1-.24.94h0C144.61,79.26,144.31,79.1,144.19,78.74Z"/><path class="cls-6" d="M144.26,68.71l-1-.95a.91.91,0,0,1-.14-1h0a.42.42,0,0,1,.7-.19l1,1a.92.92,0,0,1,.14,1h0C144.81,68.85,144.5,68.93,144.26,68.71Z"/><path class="cls-4" d="M157.19,70.19l1.16.5a.81.81,0,0,1,.34.9h0c-.08.37-.37.58-.64.46l-1.15-.5a.8.8,0,0,1-.34-.89h0C156.64,70.28,156.93,70.07,157.19,70.19Z"/><path class="cls-4" d="M237,77.82l-.52-1.54a.87.87,0,0,1,.25-1h0c.25-.16.55,0,.67.35l.52,1.54a.87.87,0,0,1-.25,1h0C237.37,78.33,237.07,78.18,237,77.82Z"/><path class="cls-5" d="M244.53,73.62l.5-1.54c.11-.36.41-.52.67-.35h0a.84.84,0,0,1,.25.94l-.49,1.55c-.12.36-.42.51-.67.35h0A.86.86,0,0,1,244.53,73.62Z"/><path class="cls-2" d="M237.48,56.07l1.13-.59c.26-.14.55.05.65.42h0a.82.82,0,0,1-.29.92l-1.13.59c-.26.14-.55,0-.65-.42h0A.82.82,0,0,1,237.48,56.07Z"/><path class="cls-3" d="M246.71,59.63l.66,1.42a.9.9,0,0,1-.14,1h0c-.23.21-.55.12-.7-.21l-.67-1.42a.92.92,0,0,1,.14-1h0C246.24,59.21,246.55,59.3,246.71,59.63Z"/><path class="cls-4" d="M237,77.82l-.52-1.54a.87.87,0,0,1,.25-1h0c.25-.16.55,0,.67.35l.52,1.54a.87.87,0,0,1-.25,1h0C237.37,78.33,237.07,78.18,237,77.82Z"/><path class="cls-5" d="M244.53,73.62l.5-1.54c.11-.36.41-.52.67-.35h0a.84.84,0,0,1,.25.94l-.49,1.55c-.12.36-.42.51-.67.35h0A.86.86,0,0,1,244.53,73.62Z"/><path class="cls-3" d="M246.71,59.63l.66,1.42a.9.9,0,0,1-.14,1h0c-.23.21-.55.12-.7-.21l-.67-1.42a.92.92,0,0,1,.14-1h0C246.24,59.21,246.55,59.3,246.71,59.63Z"/><path class="cls-5" d="M261.13,58.81l-.47,1.56c-.11.36-.41.53-.67.37h0a.86.86,0,0,1-.26-.94l.47-1.56c.11-.36.41-.52.67-.36h0A.83.83,0,0,1,261.13,58.81Z"/><path class="cls-2" d="M268.4,76.2l-1.13.62c-.26.14-.55,0-.65-.41h0a.81.81,0,0,1,.28-.92l1.12-.62c.26-.15.55,0,.66.4h0A.84.84,0,0,1,268.4,76.2Z"/><path class="cls-5" d="M303.25,59.16l-.5,1.55c-.11.36-.41.52-.66.36h0a.85.85,0,0,1-.26-1l.49-1.54c.11-.36.41-.52.67-.36h0A.86.86,0,0,1,303.25,59.16Z"/><path class="cls-6" d="M279.09,68.45l-1-.93a.9.9,0,0,1-.15-1h0c.15-.33.46-.43.7-.21l1,.92a.92.92,0,0,1,.15,1h0C279.64,68.57,279.33,68.66,279.09,68.45Z"/></g><g id="row-4" data-name="row"><path class="cls-2" d="M49.51,84.88l1.13-.58c.26-.13.55.06.65.43h0a.79.79,0,0,1-.3.91l-1.13.58c-.26.14-.55,0-.65-.42h0A.81.81,0,0,1,49.51,84.88Z"/><path class="cls-5" d="M121,87.86l-.5,1.54c-.11.36-.41.52-.67.35h0a.88.88,0,0,1-.25-1l.5-1.54c.12-.36.42-.51.67-.35h0A.85.85,0,0,1,121,87.86Z"/><path class="cls-2" d="M128,105.45l-1.14.59c-.26.13-.55-.06-.65-.43h0a.81.81,0,0,1,.3-.91l1.13-.59c.26-.13.55,0,.65.42h0A.82.82,0,0,1,128,105.45Z"/><path class="cls-4" d="M220.8,83.38l.51,1.55a.85.85,0,0,1-.24.94h0c-.25.16-.56,0-.67-.35L219.89,84a.85.85,0,0,1,.24-.94h0C220.38,82.86,220.69,83,220.8,83.38Z"/><path class="cls-6" d="M220.7,93.41l1,1a.93.93,0,0,1,.14,1h0c-.16.33-.47.41-.71.19l-1-1a.92.92,0,0,1-.14-1h0C220.16,93.28,220.47,93.19,220.7,93.41Z"/><path class="cls-4" d="M207.78,91.88l-1.16-.51a.81.81,0,0,1-.33-.89h0c.08-.38.36-.59.63-.47l1.16.51a.81.81,0,0,1,.33.89h0C208.33,91.79,208.05,92,207.78,91.88Z"/><path class="cls-3" d="M180.93,94.1l.07-1.7c0-.39.25-.69.53-.66h0c.28,0,.5.36.48.75l-.07,1.7c0,.39-.25.69-.53.66h0C181.13,94.83,180.91,94.49,180.93,94.1Z"/><path class="cls-6" d="M141.26,96.71l-1-.95a.91.91,0,0,1-.14-1h0a.42.42,0,0,1,.7-.19l1,1a.92.92,0,0,1,.14,1h0C141.81,96.85,141.5,96.93,141.26,96.71Z"/><path class="cls-4" d="M154.19,98.19l1.16.5a.81.81,0,0,1,.34.9h0c-.08.37-.37.58-.64.46l-1.15-.5a.8.8,0,0,1-.34-.89h0C153.64,98.28,153.93,98.07,154.19,98.19Z"/><path class="cls-5" d="M241.53,101.62l.5-1.54c.11-.36.41-.52.67-.35h0a.84.84,0,0,1,.25.94l-.49,1.55c-.12.36-.42.51-.67.35h0A.86.86,0,0,1,241.53,101.62Z"/><path class="cls-2" d="M234.48,84.07l1.13-.59c.26-.14.55,0,.65.42h0a.82.82,0,0,1-.29.92l-1.13.59c-.26.14-.55,0-.65-.42h0A.82.82,0,0,1,234.48,84.07Z"/><path class="cls-3" d="M243.71,87.63l.66,1.42a.9.9,0,0,1-.14,1h0c-.23.21-.55.12-.7-.21l-.67-1.42a.92.92,0,0,1,.14-1h0C243.24,87.21,243.55,87.3,243.71,87.63Z"/><path class="cls-3" d="M243.71,87.63l.66,1.42a.9.9,0,0,1-.14,1h0c-.23.21-.55.12-.7-.21l-.67-1.42a.92.92,0,0,1,.14-1h0C243.24,87.21,243.55,87.3,243.71,87.63Z"/><path class="cls-5" d="M258.13,86.81l-.47,1.56c-.11.36-.41.53-.67.37h0a.86.86,0,0,1-.26-.94l.47-1.56c.11-.36.41-.52.67-.36h0A.83.83,0,0,1,258.13,86.81Z"/></g><g id="row-5" data-name="row"><path class="cls-4" d="M45.16,41.76l-1.55.49a.84.84,0,0,1-.94-.25h0c-.16-.26,0-.56.36-.67l1.55-.5a.85.85,0,0,1,.94.26h0C45.68,41.34,45.52,41.64,45.16,41.76Z"/><path class="cls-6" d="M35.13,41.56l-1,1a.91.91,0,0,1-1,.13h0c-.32-.16-.4-.47-.18-.7l1-1a.9.9,0,0,1,1-.13h0A.43.43,0,0,1,35.13,41.56Z"/><path class="cls-4" d="M36.79,28.65l.52-1.15a.81.81,0,0,1,.9-.33h0c.37.09.58.37.46.64L38.14,29a.8.8,0,0,1-.89.33h0C36.87,29.2,36.67,28.91,36.79,28.65Z"/><path class="cls-3" d="M34.83,1.78l1.7.08c.39,0,.69.27.66.55h0a.68.68,0,0,1-.76.47l-1.7-.09c-.39,0-.69-.26-.66-.54h0C34.1,2,34.44,1.76,34.83,1.78Z"/><path class="cls-5" d="M26.71,62.3l1.54.51c.36.12.52.42.35.68h0a.86.86,0,0,1-1,.24l-1.54-.51c-.36-.11-.51-.42-.34-.67h0A.87.87,0,0,1,26.71,62.3Z"/><path class="cls-2" d="M44.33,55.43l.59,1.13c.13.26-.06.55-.43.65h0a.81.81,0,0,1-.91-.3L43,55.77c-.13-.26.06-.55.43-.65h0A.81.81,0,0,1,44.33,55.43Z"/><path class="cls-3" d="M40.69,64.62l-1.43.65a.92.92,0,0,1-1-.15h0c-.21-.24-.11-.55.22-.7l1.43-.66a.89.89,0,0,1,1,.16h0C41.11,64.15,41,64.46,40.69,64.62Z"/><path class="cls-3" d="M40.69,64.62l-1.43.65a.92.92,0,0,1-1-.15h0c-.21-.24-.11-.55.22-.7l1.43-.66a.89.89,0,0,1,1,.16h0C41.11,64.15,41,64.46,40.69,64.62Z"/><path class="cls-5" d="M41.36,79.05l-1.55-.49c-.36-.11-.52-.41-.36-.67h0a.86.86,0,0,1,.94-.26l1.55.5c.36.11.52.41.36.66h0A.85.85,0,0,1,41.36,79.05Z"/></g></g></g></svg>